<svg width="158" height="141" viewBox="0 0 158 141" fill="none" xmlns="http://www.w3.org/2000/svg">
<path d="M106.798 135.232C100.351 135.232 95.6394 133.558 92.6637 130.21C89.688 126.739 88.2002 122.213 88.2002 116.634C88.2002 110.93 90.9899 95.6801 96.5693 70.8828C86.0304 71.1307 77.5993 72.1226 71.276 73.8584C67.6804 91.3405 62.163 106.467 54.7238 119.237C50.8802 125.685 46.2307 130.768 40.7753 134.488C35.3199 138.331 29.3686 140.253 22.9213 140.253C16.474 140.253 11.2046 138.083 7.11301 133.744C3.02145 129.528 0.975676 123.949 0.975676 117.006C0.975676 107.087 5.06723 97.7878 13.2503 89.1088C21.4334 80.3057 31.7863 73.2385 44.309 67.9071C45.4248 56.5003 45.9828 47.2013 45.9828 40.0101C45.9828 32.6949 45.2389 27.5495 43.751 24.5738C42.3872 21.5981 40.1554 20.1103 37.0557 20.1103C33.9561 20.1103 29.8645 21.2882 24.7811 23.6439C19.6976 25.8757 14.9242 28.9133 10.4606 32.7569L5.81115 26.0616C10.2747 20.6062 16.8459 15.4608 25.525 10.6253C34.2041 5.66587 42.5731 3.18614 50.6323 3.18614C66.8745 3.18614 74.9956 15.5228 74.9956 40.1961C74.9956 46.0235 74.4997 53.0287 73.5078 61.2118C81.5669 59.6 90.184 58.5461 99.359 58.0502C103.575 38.4603 105.682 22.962 105.682 11.5552C105.682 9.44746 105.558 7.83563 105.31 6.71976C115.229 2.87617 125.21 0.95438 135.253 0.95438C135.625 1.94627 135.811 3.68208 135.811 6.16181C135.811 13.849 132.773 31.3931 126.698 58.7941C141.576 59.91 151.743 61.3978 157.199 63.2576C157.323 63.7535 157.385 64.6834 157.385 66.0473C157.385 68.651 156.207 71.9367 153.851 75.9042C145.792 73.4245 135.873 71.8127 124.094 71.0687C119.755 91.8985 117.585 105.413 117.585 111.612C117.585 117.688 119.073 120.725 122.048 120.725C123.66 120.725 125.396 120.415 127.256 119.795L130.046 127.049C121.119 132.504 113.369 135.232 106.798 135.232ZM21.0615 122.399C25.0291 122.399 28.9346 118.99 32.7782 112.17C36.6218 105.351 39.7215 95.1841 42.0772 81.6696C35.134 84.6453 28.8106 89.2948 23.1073 95.6181C17.4039 101.941 14.5522 108.017 14.5522 113.844C14.5522 116.572 15.1721 118.68 16.412 120.167C17.7758 121.655 19.3257 122.399 21.0615 122.399Z" fill="white"/>
</svg>
